<svg width="228" height="155" viewBox="0 0 228 155" fill="none" xmlns="http://www.w3.org/2000/svg">
<path d="M2 134C4.59765 141.614 7.44912 150.372 16.2222 152C25.3868 153.701 31.9994 153.267 40 149" stroke="black" stroke-width="3" stroke-linecap="round"/>
<path d="M58 120C63.6538 108.257 67.28 95.7065 72.9444 84C79.2373 70.9948 85.4238 55.152 88.4444 41.0556C90.8448 29.8538 92.5128 18.3849 93.7778 7C94.9239 -3.31539 89.5991 5.55066 85 9" stroke="black" stroke-width="3" stroke-linecap="round"/>
<path d="M79 14C74.1685 20.9789 68.9907 28.0247 66 36" stroke="black" stroke-width="3" stroke-linecap="round"/>
<path d="M64 40C62.0503 42.089 44.1843 67.3008 49.7778 68C59.4618 69.2105 70.7545 64.8194 79.8889 62.4444C97.1227 57.9637 114.429 53.5235 131.222 47.5556C147.404 41.805 166.07 35.4474 180 25" stroke="black" stroke-width="3" stroke-linecap="round"/>
<path d="M97 111C103.436 111 104.665 107.188 110 104.444C114.409 102.177 114.351 100.092 116 95.5556C118.408 88.9346 112.202 87.081 107 85" stroke="black" stroke-width="3" stroke-linecap="round"/>
<path d="M105 85C101.883 85 100.105 86.8945 98 89" stroke="black" stroke-width="3" stroke-linecap="round"/>
<path d="M94 96C93.1027 100.487 89.6884 104.698 89.0556 109.444C88.5226 113.442 88.7012 118.188 89 122.222C89.4092 127.746 98.0084 130 102.444 130C106.556 130 112.307 123.446 115.444 121.056C124.021 114.521 127.255 101.235 130.5 91.5C132.604 85.187 135.88 79.3843 137.778 73C139.503 67.1969 145 61.199 145 55" stroke="black" stroke-width="3" stroke-linecap="round"/>
<path d="M142 55H144" stroke="black" stroke-width="3" stroke-linecap="round"/>
<path d="M142 55C142 60.4421 138 64.7831 138 70" stroke="black" stroke-width="3" stroke-linecap="round"/>
<path d="M138 71C136.036 75.1742 134.444 79.667 133 84" stroke="black" stroke-width="3" stroke-linecap="round"/>
<path d="M132 86C132 88.1047 131 89.8368 131 92" stroke="black" stroke-width="3" stroke-linecap="round"/>
<path d="M159 97C157.917 96.87 148.031 91.789 147 90.5C143.901 86.626 141.153 96.4782 140.444 97.3889C139.198 98.991 137.278 106.208 139.667 108C142.711 110.283 144.61 116.756 149 117C151.941 117.163 152.904 118.368 155.222 116.222C157.732 113.898 159.822 114.246 161.444 111C163.748 106.393 164 103.744 164 98.5C164 98.0145 163.479 92.7064 163.056 94.6111C162.082 98.9925 166.647 96.8222 167 100C167.447 104.027 169.386 109.942 172.222 112.778C174.952 115.508 179.414 114.105 181.5 111.556C182.881 109.868 184 108.246 184 106C184 103.307 182 102.114 182 99.5556C182 97.2924 179.376 95.6194 179.056 93.0556C178.483 88.4763 180.509 92.8527 181.222 94.7778C182.81 99.0654 184.737 102.26 185 107C185.195 110.519 193.655 114.981 195 110.944C197.669 102.937 201.271 96.6323 202.056 88C202.92 78.4916 204.716 67.0065 202.556 57.5556C200.484 48.4911 203.162 37.3249 199 29" stroke="black" stroke-width="3" stroke-linecap="round"/>
<path d="M216 79C213.069 79.5172 211.99 83.6821 210.5 86C208.672 88.8439 205.318 90.3604 203.222 93C201.602 95.0399 199.44 97.9769 196.556 98.3889C194.309 98.7099 198.682 94.2943 199.056 92.0556C199.838 87.3615 209.024 100.619 209.5 101C213.869 104.496 220.069 106 226 106" stroke="black" stroke-width="3" stroke-linecap="round"/>
<path d="M151 112C148.815 117.898 144.995 123.038 142.444 128.778C140.667 132.776 139.444 136.334 137 140" stroke="black" stroke-width="3" stroke-linecap="round"/>
</svg>
